<svg height="512" viewBox="0 0 24 24" width="512" xmlns="http://www.w3.org/2000/svg"><g id="Layer_2" data-name="Layer 2"><path d="m22.75 6v12a4.754 4.754 0 0 1 -4.75 4.75h-12a4.669 4.669 0 0 1 -1.55-.26 4.751 4.751 0 0 1 -3.2-4.49v-12a4.754 4.754 0 0 1 4.75-4.75h12a4.754 4.754 0 0 1 4.75 4.75z" fill="#fff"/><path d="m14.75 19v3.75h-8.75a4.669 4.669 0 0 1 -1.55-.26 4.751 4.751 0 0 1 -3.2-4.49v-2.73l3.16-2.11a2.736 2.736 0 0 1 3.17.09l3.49 2.62 3.38 2.53a.739.739 0 0 1 .3.6z" fill="#62d8b6"/><circle cx="9.063" cy="7.063" fill="#ffde76" r="2.063"/><path d="m22.75 13.04v4.96a4.754 4.754 0 0 1 -4.75 4.75h-12a4.669 4.669 0 0 1 -1.55-.26l11-11a2.739 2.739 0 0 1 3.17-.52z" fill="#4cc19d"/><g fill="#232323"><path d="m9 9.75a2.75 2.75 0 1 1 2.75-2.75 2.752 2.752 0 0 1 -2.75 2.75zm0-4a1.25 1.25 0 1 0 1.25 1.25 1.252 1.252 0 0 0 -1.25-1.25z"/><path d="m18 22.75h-12a4.756 4.756 0 0 1 -4.75-4.75v-12a4.756 4.756 0 0 1 4.75-4.75h12a4.756 4.756 0 0 1 4.75 4.75v12a4.756 4.756 0 0 1 -4.75 4.75zm-12-20a3.254 3.254 0 0 0 -3.25 3.25v12a3.254 3.254 0 0 0 3.25 3.25h12a3.254 3.254 0 0 0 3.25-3.25v-12a3.254 3.254 0 0 0 -3.25-3.25z"/><path d="m6 22.75a.75.75 0 0 1 -.53-1.28l9.98-9.98a2.758 2.758 0 0 1 3.172-.522l3.714 1.862a.75.75 0 1 1 -.672 1.34l-3.71-1.859a1.258 1.258 0 0 0 -1.443.239l-9.981 9.98a.744.744 0 0 1 -.53.22z"/><path d="m2 16.41a.75.75 0 0 1 -.417-1.374l2.82-1.88a2.76 2.76 0 0 1 3.176.094l2.4 1.8a.75.75 0 1 1 -.9 1.2l-2.4-1.8a1.241 1.241 0 0 0 -1.446-.045l-2.817 1.879a.74.74 0 0 1 -.416.126z"/></g></g></svg>