<svg enable-background="new 0 0 36 36" height="512" viewBox="0 0 36 36" width="512" xmlns="http://www.w3.org/2000/svg"><g id="BG"><g><path d="m27.417 3.914c-6.915.129-11.732-3.365-15.064-3.302s-10.296 2.109-10.009 17.44 9.744 17.404 13.41 17.336c17.163-.321 23.911-31.703 11.663-31.474z" fill="#efefef"/></g></g><g id="Effect"><g><g><path d="m-.875 12.875h2v1h-2z" fill="#a4afc1"/></g><g><path d="m2.375 15.375h1v2h-1z" fill="#a4afc1"/></g><g><path d="m2.375 9.625h1v2h-1z" fill="#a4afc1"/></g></g><g><path d="m26.747 15c-.827 0-1.5-.673-1.5-1.5s.673-1.5 1.5-1.5 1.5.673 1.5 1.5-.673 1.5-1.5 1.5zm0-2c-.276 0-.5.225-.5.5s.224.5.5.5.5-.225.5-.5-.224-.5-.5-.5z" fill="#a4afc1"/></g></g><g id="Color"><g><g><g><path d="m19.25 6.75h-6.49-4.01c-1.105 0-2 .895-2 2v8.01 6.49c0 1.105.895 2 2 2h6.49 4.01c1.105 0 2-.895 2-2v-8.01-6.49c0-1.105-.895-2-2-2z" fill="#2fdf84"/></g><g><circle cx="11" cy="13" fill="#f3f3f1" r="1.25"/></g><g><path d="m18.71 15.21c-.39-.39-1.03-.39-1.42 0l-5.29 5.29-1.79-1.79c-.39-.39-1.03-.39-1.42 0l-2.04 2.04v2.5c0 1.105.895 2 2 2h6.49 4.01c1.105 0 2-.895 2-2v-5.25l-2-2.25z" fill="#2fdf84"/></g></g><g><g><path d="m9 23.25v-6.49-8.01c0-1.105.895-2 2-2h-2.25c-1.105 0-2 .895-2 2v8.01 6.49c0 1.105.895 2 2 2h2.25c-1.105 0-2-.895-2-2z" fill="#00b871"/></g><g><g><path d="m14.331 20.669 4.919-4.919-.54-.54c-.391-.391-1.03-.391-1.42 0l-4.54 4.54.919.919c.183.183.479.183.662 0z" fill="#00b871"/></g><g><path d="m8.75 23.75v-2.5l2-2-.54-.54c-.391-.391-1.03-.391-1.42 0l-2.04 2.04v2.5c0 1.105.895 2 2 2h.69c-.42-.367-.69-.899-.69-1.5z" fill="#00b871"/></g></g></g></g><g><g><path d="m26.25 18.729c-1.23 0-2.29.74-2.75 1.8-.46-1.06-1.52-1.8-2.75-1.8-1.655 0-3 1.345-3 3 0 3.25 5.75 7.542 5.75 7.542s5.75-4.292 5.75-7.542c0-1.655-1.345-3-3-3z" fill="#f3f3f1"/></g><g><path d="m20 21.729c0-1.255.775-2.328 1.871-2.776-.347-.14-.723-.224-1.121-.224-1.655 0-3 1.345-3 3 0 3.25 5.75 7.542 5.75 7.542s.466-.351 1.125-.916c-1.673-1.434-4.625-4.294-4.625-6.626z" fill="#d5dbe1"/></g></g></g><g id="regular_1.5"><g><path d="m23.5 30.021c-.158 0-.315-.05-.449-.149-.619-.463-6.051-4.618-6.051-8.143 0-2.067 1.682-3.75 3.75-3.75 1.063 0 2.054.447 2.75 1.197.696-.75 1.687-1.197 2.75-1.197 2.068 0 3.75 1.683 3.75 3.75 0 3.524-5.432 7.68-6.051 8.142-.134.1-.291.15-.449.15zm-2.75-10.542c-1.241 0-2.25 1.01-2.25 2.25 0 2.147 3.275 5.212 5 6.592 1.725-1.38 5-4.444 5-6.592 0-1.24-1.009-2.25-2.25-2.25-.897 0-1.707.529-2.062 1.349-.237.547-1.139.547-1.376 0-.355-.819-1.165-1.349-2.062-1.349z"/></g><g><path d="m11 15c-1.103 0-2-.897-2-2s.897-2 2-2 2 .897 2 2-.897 2-2 2zm0-2.5c-.276 0-.5.225-.5.5s.224.5.5.5.5-.225.5-.5-.224-.5-.5-.5z"/></g><g><path d="m7.28 21.28-1.06-1.06 2.04-2.04c.685-.684 1.797-.683 2.48 0l1.26 1.26 4.76-4.76c.685-.684 1.797-.683 2.48 0l.541.54-1.061 1.06-.54-.54c-.098-.098-.262-.098-.36 0l-5.29 5.29c-.293.293-.768.293-1.061 0l-1.79-1.79c-.098-.098-.262-.098-.36 0z"/></g><g><path d="m15.24 26h-6.49c-1.517 0-2.75-1.233-2.75-2.75v-14.5c0-1.517 1.233-2.75 2.75-2.75h10.5c1.517 0 2.75 1.233 2.75 2.75v6.49h-1.5v-6.49c0-.689-.561-1.25-1.25-1.25h-10.5c-.689 0-1.25.561-1.25 1.25v14.5c0 .689.561 1.25 1.25 1.25h6.49z"/></g></g></svg>