<svg id="Layer_1" enable-background="new 0 0 63.964 55.94" height="55.94" viewBox="0 0 63.964 55.94" width="63.964" xmlns="http://www.w3.org/2000/svg"><g id="Body_9_"><g><path d="m63.836 38.5-7.855-29.589-1.657-6.241c-.514-1.936-2.532-3.069-4.512-2.54-.004 0-.008-.001-.012 0l-47.021 12.717c-.004.002-.006.004-.01.005-1.977.542-3.163 2.542-2.649 4.477l1.657 6.242 7.854 29.589c.531 2.001 2.57 3.188 4.554 2.652l47.021-12.717c1.984-.537 3.161-2.594 2.63-4.595z" fill="#ccc"/></g></g><g id="Body_10_"><g><path d="m56.345 5.731c-.003 0-.007-.002-.011-.002h-48.68c-.005 0-.008.002-.012.002-2.048.007-3.706 1.63-3.706 3.633v6.461 30.634c0 2.071 1.664 3.751 3.718 3.751h48.68c2.054 0 3.719-1.68 3.719-3.751v-30.634-6.461c0-2.003-1.659-3.626-3.708-3.633z" fill="#ccc"/></g></g><g id="Container"><g><path d="m54.04 9.771h-44.086c-1.107 0-2.004.906-2.004 2.023v6.064 2.022 12.135 12.135c0 1.118.896 2.024 2.004 2.024h44.086c1.106 0 2.004-.906 2.004-2.024v-6.063-2.022-12.134-12.136c0-1.117-.898-2.024-2.004-2.024z" fill="#fff"/></g></g><g id="Picture_1_"><g><path d="m36.005 21.906-6.012 10.113-6.012-6.068-8.015 12.135h32.062z" fill="#75a64b"/></g></g><g id="Sun"><g><ellipse cx="18.983" cy="18.883" fill="#fc6" rx="3.018" ry="3.046"/></g></g><g/><g/><g/><g/><g/><g/><g/><g/><g/><g/><g/><g/><g/><g/><g/></svg>